# xmcd
#
# Track frame offsets:
#	150
#	12934
#	29141
#	38100
#	48230
#	57786
#	68011
#	78441
#	86959
#	107564
#
# Disc length: 1549
#
# Revision: 1
# Processed by: cddbd v1.5.1PL0 Copyright (c) Steve Scherf et al.
# Submitted via: CDex 1.50
# Normalized: r0:TDELIM( - )
#
DISCID=7c060b0a
DTITLE=Various Artist - How Fast Them Trucks Can Go!
DYEAR=1987
DGENRE=Country
TTITLE0=How Fast Them Trucks Can Go - Claude Gray
TTITLE1=18 Wheels Hummin' Home - Mac Wiseman
TTITLE2=Truck Drivin' Sun Of A Gun - Red Sovine
TTITLE3=Movin' On - Mike Lunsford
TTITLE4=A Tombstone Every MIle - Charlie Moore
TTITLE5=Six Days On The Road - Red Sovine
TTITLE6=Alabam - Cowboy Copas
TTITLE7=Truck Drivin' Buddy - Frankie Miller
TTITLE8=Little Joe - Red Sovine
TTITLE9=Sneakin' Across The Border - Hardin Trio
EXTD=YEAR: 1987
EXTT0=
EXTT1=
EXTT2=
EXTT3=
EXTT4=
EXTT5=
EXTT6=
EXTT7=
EXTT8=
EXTT9=
PLAYORDER=
